<svg version="1.0" xmlns="http://www.w3.org/2000/svg"
 width="128.000000pt" height="128.000000pt" viewBox="0 0 128.000000 128.000000"
 preserveAspectRatio="xMidYMid meet">
<g transform="translate(0.000000,128.000000) scale(0.100000,-0.100000)"
fill="#0000008a" stroke="none">
<path d="M408 1269 c-72 -17 -174 -77 -235 -137 -101 -102 -153 -227 -153
-372 0 -141 53 -266 155 -366 160 -157 394 -195 591 -98 l69 34 160 -166 c149
-154 162 -165 196 -164 44 0 69 25 69 69 0 27 -21 54 -155 194 -85 89 -155
165 -155 168 0 4 16 33 35 65 54 88 70 152 69 274 0 118 -14 168 -70 262 -68
111 -177 195 -303 232 -59 17 -210 20 -273 5z m285 -167 c292 -136 290 -542
-3 -681 -47 -22 -68 -26 -150 -26 -82 0 -103 4 -152 27 -157 73 -247 239 -218
400 45 247 301 384 523 280z"/>
</g>
</svg>
